# xmcd
#
# Track frame offsets: 
#        150
#        13650
#        28187
#        40895
#        54687
#        66107
#        78290
#        91690
#        103972
#        115875
#        127725
#        141202
#        151642
#        163485
#        174927
#        187127
#        199472
#        212755
#        225557
#        237859
#        248570
#        260030
#
# Disc length: 3606 seconds
#
# Revision: 6
# Processed by: cddbd v1.5.2PL0 Copyright (c) Steve Scherf et al.
# Submitted via: ExactAudioCopy v0.95b3
#
DISCID=300e1416
DTITLE=The Stanley Brothers - Complete Columbia Stanley Brothers
DYEAR=1949
DGENRE=Country
TTITLE0=A Vision of Mother
TTITLE1=The White Dove
TTITLE2=Gathering Flowers for the Master's Bouquet
TTITLE3=Angels Are Singing (In Heaven Tonight)
TTITLE4=It's Never Too Late to Start Over
TTITLE5=Have You Someone (In Heaven Waiting)
TTITLE6=Little Glass of Wine
TTITLE7=Let Me Be Your Friend
TTITLE8=We'll Be Sweethearts in Heaven
TTITLE9=I Love No One But You
TTITLE10=Too Late to Cry
TTITLE11=The Old Home
TTITLE12=The Drunkard's Hell
TTITLE13=The Fields Have Turned Brown
TTITLE14=Hey! Hey! Hey!
TTITLE15=The Lonesome River
TTITLE16=I'm A Man Of Constant Sorrow
TTITLE17=Pretty Polly
TTITLE18=A Life of Sorrow
TTITLE19=Sweetest Love
TTITLE20=The Wandering Boy
TTITLE21=Let's Part the Best of Friends
EXTD=
EXTT0=
EXTT1=
EXTT2=
EXTT3=
EXTT4=
EXTT5=
EXTT6=
EXTT7=
EXTT8=
EXTT9=
EXTT10=
EXTT11=
EXTT12=
EXTT13=
EXTT14=
EXTT15=
EXTT16=
EXTT17=
EXTT18=
EXTT19=
EXTT20=
EXTT21=
PLAYORDER=
